<svg version="1.1" id="Layer_1" xmlns="http://www.w3.org/2000/svg" xmlns:xlink="http://www.w3.org/1999/xlink" x="0px" y="0px"
	 width="100%" viewBox="0 0 1024 1024" enable-background="new 0 0 1024 1024" xml:space="preserve">
<path fill="#000000" opacity="1.000000" stroke="none" 
	d="
M318.693787,542.000000 
	C318.697083,512.015747 318.765900,482.531250 318.654846,453.047424 
	C318.629272,446.254181 320.701416,438.853790 313.891632,434.195923 
	C315.287994,431.189514 317.339142,431.774628 319.053833,431.744080 
	C340.865784,431.355865 362.679565,431.066345 384.490540,430.633209 
	C390.475067,430.514374 396.460297,430.110107 402.429108,429.634766 
	C406.433594,429.315857 408.119019,430.672882 408.171265,434.921631 
	C408.269348,442.900543 408.857025,450.874878 409.308441,458.847321 
	C409.489746,462.049072 409.037323,464.375244 404.956085,464.454590 
	C401.236816,464.526917 398.321625,464.188782 397.978943,459.553894 
	C397.709534,455.910522 396.955170,452.300018 396.746124,448.656006 
	C396.567505,445.543060 395.323151,444.223602 392.132874,444.238007 
	C375.808655,444.311768 359.483826,444.287384 343.159424,444.227539 
	C340.414368,444.217468 339.278473,445.300629 339.286621,448.080444 
	C339.340302,466.403778 339.328461,484.727386 339.288025,503.050842 
	C339.282471,505.564270 340.287170,506.666534 342.849182,506.652954 
	C354.009491,506.593689 365.170288,506.594147 376.330750,506.630035 
	C380.519928,506.643494 379.975342,503.630676 380.051941,501.019104 
	C380.148468,497.730347 380.088135,494.622223 384.872620,494.607147 
	C390.357208,494.589874 391.270782,495.186829 391.295197,500.751526 
	C391.338287,510.579407 391.222748,520.408691 391.351990,530.235046 
	C391.397552,533.699463 390.440277,535.512817 386.585388,535.436279 
	C383.032349,535.365784 380.479980,534.890320 380.078827,530.518799 
	C379.385834,522.966858 379.219360,523.011047 371.612366,523.016724 
	C362.783844,523.023376 353.952240,523.099915 345.128052,522.890503 
	C341.024445,522.793152 339.158508,523.863464 339.221802,528.475037 
	C339.450409,545.129517 339.433411,561.791443 339.181732,578.445618 
	C339.112457,583.030579 340.896698,584.085327 345.053680,584.018311 
	C360.375824,583.771423 375.702576,583.700623 391.026703,583.769531 
	C394.788208,583.786377 396.524780,582.533997 396.707550,578.689880 
	C396.872681,575.216614 397.651855,571.777039 397.953674,568.304688 
	C398.324249,564.041321 400.720947,562.700256 404.697296,562.881409 
	C408.979889,563.076477 409.320404,565.783386 409.178253,569.086609 
	C408.827423,577.236145 408.460938,585.386841 408.281586,593.541016 
	C408.205872,596.985962 406.642822,598.294556 403.343201,598.203918 
	C384.700592,597.692017 366.056793,597.222900 347.412994,596.755554 
	C338.758240,596.538635 330.101685,596.387451 321.447906,596.138855 
	C319.632416,596.086731 317.768433,595.946838 316.029510,595.471558 
	C314.007355,594.918823 313.085999,593.287415 314.986115,591.849670 
	C318.795746,588.967102 318.567505,584.909668 318.604034,580.979126 
	C318.723206,568.153625 318.676697,555.326477 318.693787,542.000000 
z"/>
<path fill="#000000" opacity="1.000000" stroke="none" 
	d="
M279.646667,524.999878 
	C279.653900,503.842957 279.678741,483.185974 279.658813,462.529083 
	C279.652374,455.870300 281.190948,448.820557 274.918884,444.200806 
	C275.913605,441.761597 277.535583,441.885162 278.986481,441.860321 
	C284.482849,441.766388 289.985291,441.871979 295.475952,441.658356 
	C298.777954,441.529877 299.971161,442.999878 299.938660,446.084320 
	C299.887756,450.914642 299.941711,455.746094 299.951477,460.577057 
	C300.018219,493.561310 300.169037,526.545776 300.101471,559.529724 
	C300.080688,569.671814 299.942352,579.905396 297.238678,589.766541 
	C292.052582,608.681702 282.854492,624.750793 263.324432,632.004944 
	C245.571365,638.598999 229.205719,634.754089 215.579300,622.171631 
	C201.955826,609.591919 198.413223,593.468994 202.655365,575.525391 
	C203.534622,571.806274 205.318283,570.130432 209.362122,570.915344 
	C213.055222,571.632263 214.453186,572.951477 213.226532,576.979370 
	C209.833633,588.120667 210.194244,598.937866 216.851334,609.060974 
	C230.241348,629.422729 264.420349,628.483704 275.931061,607.357544 
	C278.789795,602.110779 279.639130,596.349792 279.648193,590.469421 
	C279.681641,568.812988 279.652557,547.156433 279.646667,524.999878 
z"/>
<path fill="#000000" opacity="1.000000" stroke="none" 
	d="
M589.377747,539.794067 
	C587.352600,541.820068 588.064941,544.079102 588.055542,546.177673 
	C588.016113,555.006531 588.025208,563.836182 588.110046,572.664673 
	C588.143127,576.104309 587.486328,578.467041 583.193970,578.350830 
	C578.927917,578.235291 579.553772,575.473938 579.561890,572.809753 
	C579.605408,558.483276 579.649414,544.156738 579.629272,529.830383 
	C579.625977,527.510803 579.416687,525.175903 579.103333,522.875305 
	C578.276978,516.809998 582.464172,511.731140 588.583130,511.714569 
	C607.045166,511.664551 625.508484,511.802765 643.969055,511.631592 
	C652.719238,511.550476 660.357178,508.801392 665.054626,500.678802 
	C665.382629,500.111542 665.594421,499.464905 665.777039,498.831177 
	C665.861877,498.536865 665.746704,498.184937 665.690979,497.444672 
	C660.533020,495.405243 654.999390,496.431793 649.613525,496.339325 
	C638.976379,496.156677 638.828674,496.270386 638.601929,485.826721 
	C638.360046,474.684601 638.358154,463.535492 638.393372,452.389893 
	C638.414246,445.767303 638.628723,445.674438 645.109497,445.666870 
	C650.273743,445.660797 655.438660,445.610870 660.601746,445.688049 
	C662.156250,445.711304 663.990112,445.142822 665.205200,447.149658 
	C664.825684,449.729523 662.699646,449.186890 661.032043,449.210876 
	C656.368530,449.278015 651.699951,449.347748 647.040222,449.200684 
	C643.765686,449.097321 642.120605,450.080750 642.220154,453.712555 
	C642.689575,470.841309 639.612915,467.402710 655.873169,467.904694 
	C658.886047,467.997742 662.206482,466.837250 664.885803,469.405029 
	C664.343689,472.357513 661.996582,471.940491 660.170105,471.944611 
	C656.014038,471.953949 651.846008,471.836365 647.704285,471.503448 
	C644.095520,471.213409 641.920471,471.899780 642.256042,476.248932 
	C642.562683,480.223724 642.512024,484.250977 642.278625,488.235168 
	C642.066223,491.861115 643.694397,492.906433 647.016418,492.777283 
	C651.174744,492.615631 655.347961,492.852142 659.507935,492.713104 
	C663.049683,492.594696 666.438110,492.912018 669.556030,494.742615 
	C668.861267,506.100433 660.574707,514.618042 649.358032,514.990112 
	C645.112732,515.130798 644.098938,516.836365 644.143921,520.792114 
	C644.341309,538.115295 644.288513,555.441650 644.249146,572.766724 
	C644.244507,574.787964 644.965515,577.189392 642.217468,578.369080 
	C638.342346,580.032654 635.723328,578.165833 635.715698,573.442139 
	C635.687378,555.950378 635.725403,538.458557 635.738159,520.966736 
	C635.739441,519.160156 635.738281,517.353577 635.738281,516.092346 
	C634.554016,514.603271 633.463196,514.707581 632.540955,514.931519 
	C619.541504,518.088074 606.492920,514.593079 593.460022,515.171753 
	C588.563293,515.389160 586.788818,516.912598 587.363037,521.593689 
	C587.524048,522.906494 587.529846,524.274963 587.358215,525.585327 
	C586.765625,530.110291 589.013733,531.498474 593.138306,533.034424 
	C600.090576,535.623291 606.875610,537.580933 614.328918,536.823364 
	C615.704407,536.683594 617.783813,536.450806 617.859131,538.541199 
	C617.944031,540.895142 615.699463,540.877991 614.153320,540.820251 
	C606.014648,540.516602 597.882202,540.046143 589.377747,539.794067 
z"/>
<path fill="#000000" opacity="1.000000" stroke="none" 
	d="
M723.512451,555.422852 
	C720.804077,563.062500 718.908447,570.602661 714.563416,577.539368 
	C708.224548,562.154236 704.891846,545.948059 698.444885,529.218140 
	C693.718140,546.158020 690.594177,562.186523 685.316345,577.394409 
	C682.508179,577.400940 682.471619,575.527222 682.070251,574.268188 
	C676.057007,555.403320 670.137146,536.508728 664.148132,517.636047 
	C663.134033,514.440247 663.275818,512.397339 667.294312,511.452667 
	C671.476074,510.469574 671.649963,512.566345 672.538513,515.701599 
	C676.750305,530.563293 681.366943,545.310242 686.737427,560.087280 
	C689.827271,547.942017 692.941101,535.802734 695.983337,523.645569 
	C696.488525,521.626892 695.312683,519.756592 695.050720,517.800781 
	C694.751343,515.566101 693.813904,512.886719 697.000732,511.936279 
	C700.280273,510.958130 701.882568,512.865601 702.808350,515.792236 
	C706.922729,528.798645 711.088013,541.789062 715.251038,554.780029 
	C715.847107,556.640198 716.531616,558.471924 717.649414,561.675964 
	C722.584473,545.938782 727.059998,531.505371 731.676880,517.117371 
	C732.373535,514.946472 732.369446,510.712006 735.371826,511.672394 
	C739.105713,512.866699 735.982971,516.257874 735.320984,518.424500 
	C731.577087,530.678040 727.559814,542.848083 723.512451,555.422852 
z"/>
<path fill="#000000" opacity="1.000000" stroke="none" 
	d="
M833.112244,563.929932 
	C836.288513,568.588379 839.270142,572.945435 842.270081,577.329224 
	C835.692383,579.652771 833.288391,578.910156 829.649963,573.609741 
	C824.465515,566.056946 819.262390,558.516907 814.045410,550.986572 
	C812.907776,549.344543 811.760803,547.696045 810.470032,546.176331 
	C808.732056,544.130310 806.694946,541.681580 803.841370,542.617615 
	C800.966614,543.560730 802.351868,546.682129 802.316528,548.809570 
	C802.178223,557.136780 802.208618,565.469971 802.366333,573.797302 
	C802.427856,577.045837 801.476868,578.905762 797.936096,578.858398 
	C794.563843,578.813293 793.805054,576.805725 793.810181,573.925598 
	C793.842957,555.599915 793.721680,537.273315 793.887756,518.949097 
	C793.953979,511.646576 795.298279,510.839233 802.755066,511.343414 
	C807.736206,511.680206 812.758301,511.453766 817.731628,511.856110 
	C829.815735,512.833740 836.291321,522.314758 832.058594,532.571655 
	C830.445129,536.481445 827.625610,539.101746 823.692383,540.666321 
	C822.055969,541.317261 820.045227,541.333862 818.715576,543.348572 
	C823.414368,550.058167 828.165955,556.843323 833.112244,563.929932 
M804.223572,515.365967 
	C800.229065,519.231445 802.444946,524.145874 802.284363,528.522278 
	C801.868958,539.842163 802.539490,540.227356 813.992249,538.926697 
	C820.918274,538.140076 824.891296,533.594055 824.871521,526.478149 
	C824.853943,520.155579 820.852051,515.887817 814.007080,515.230042 
	C811.053040,514.946106 808.051697,515.154846 804.223572,515.365967 
z"/>
<path fill="#000000" opacity="1.000000" stroke="none" 
	d="
M567.134521,520.951477 
	C578.087341,537.159546 576.875488,558.319153 564.540100,570.383179 
	C554.663391,580.042603 536.759277,582.267822 523.524902,575.480713 
	C511.250824,569.186096 503.971497,554.705750 505.883667,540.754272 
	C507.828552,526.564026 515.710938,517.322083 529.213440,513.124023 
	C543.020630,508.831268 556.203247,508.883972 567.134521,520.951477 
M566.615234,549.058350 
	C567.078064,541.945251 566.189514,535.054932 562.752563,528.717651 
	C557.654114,519.316711 549.515869,515.181885 538.964294,514.980347 
	C529.627258,514.801941 521.996765,517.969116 517.978333,526.564453 
	C511.806488,539.765747 511.919098,553.161194 519.965393,565.635620 
	C527.632690,577.522644 543.153137,579.936279 554.684082,571.684753 
	C562.172546,566.326050 565.052979,558.527954 566.615234,549.058350 
z"/>
<path fill="#000000" opacity="1.000000" stroke="none" 
	d="
M857.686951,515.418701 
	C854.807190,518.402954 853.905884,531.507202 856.329834,532.023010 
	C861.393860,533.100647 865.448975,537.030090 870.878967,536.783813 
	C874.364319,536.625732 877.854187,536.559631 881.342773,536.486633 
	C882.828308,536.455505 884.673767,536.237915 884.635925,538.427307 
	C884.605896,540.166443 882.959595,540.304199 881.631775,540.308533 
	C874.642273,540.331482 867.641907,540.517151 860.666748,540.190369 
	C856.200134,539.981262 854.859192,541.623535 855.022217,545.955505 
	C855.328674,554.099915 855.250000,562.263672 855.136047,570.416687 
	C855.083069,574.202698 856.391174,576.129822 860.391235,575.561829 
	C869.060608,574.330688 878.113708,575.862061 886.409851,571.893555 
	C887.945129,571.159180 889.527588,571.326599 889.956482,573.270020 
	C890.372009,575.152832 891.015259,577.365662 888.437439,578.389343 
	C887.532654,578.748779 886.490540,578.909851 885.510925,578.910583 
	C874.027771,578.919189 862.544556,578.839905 851.061584,578.876953 
	C847.466797,578.888489 845.979431,577.272827 846.061279,573.716431 
	C846.260071,565.080505 846.105957,556.431580 846.498413,547.806335 
	C846.893250,539.129517 845.859375,530.520203 845.824707,521.871704 
	C845.800781,515.907166 849.926697,511.721497 855.865967,511.659515 
	C866.970337,511.543610 878.087891,512.388611 889.463928,510.618073 
	C889.700500,514.453918 888.671753,515.901062 885.061035,515.769226 
	C876.086182,515.441711 867.098511,515.463867 857.686951,515.418701 
z"/>
<path fill="#000000" opacity="1.000000" stroke="none" 
	d="
M778.377319,574.569092 
	C775.831177,565.841858 771.871887,558.125305 768.324036,550.235962 
	C767.324951,548.014282 765.766418,546.817444 763.284424,546.949585 
	C763.118896,546.958435 762.951782,546.936768 762.785400,546.929443 
	C739.121582,545.885498 745.845276,542.928040 735.975159,563.068237 
	C733.998413,567.101807 732.359924,571.299866 730.448608,575.367249 
	C729.040649,578.363586 728.955872,578.323730 725.107300,578.176758 
	C724.196777,576.167969 725.681030,574.707031 726.414795,573.153809 
	C735.589111,553.734070 744.813477,534.337952 754.041382,514.943542 
	C754.734314,513.487244 755.100830,511.681427 757.237183,511.533722 
	C759.471619,511.379272 760.581116,512.803711 761.346741,514.550415 
	C769.297729,532.689880 778.443176,550.294739 785.645447,568.767639 
	C787.218872,572.803467 784.414246,575.602478 781.945129,577.668030 
	C779.968811,579.321350 778.987915,576.776611 778.377319,574.569092 
M761.618713,535.852051 
	C759.388184,531.707092 758.244507,526.995056 754.979675,522.400879 
	C751.639343,529.232361 748.013489,535.052979 746.127930,542.424988 
	C752.377686,542.897522 757.839233,543.386658 763.187317,542.327881 
	C763.733337,539.747925 762.412048,538.263672 761.618713,535.852051 
z"/>
<path fill="#000000" opacity="1.000000" stroke="none" 
	d="
M473.414673,530.645996 
	C478.704559,532.765930 483.705475,534.608887 488.600342,536.699951 
	C499.057678,541.167297 504.422974,549.920715 503.237732,560.298889 
	C502.230072,569.122498 494.767365,576.061707 484.246155,578.277588 
	C477.359650,579.727905 470.611145,579.340027 464.069916,576.989197 
	C453.348511,573.136047 448.965057,562.525391 454.350159,553.942261 
	C456.191467,551.007507 458.685242,549.195740 462.323822,549.417786 
	C462.640564,551.036194 461.543243,551.452087 460.874908,552.119507 
	C455.214874,557.771851 455.565491,565.722595 461.713806,570.875061 
	C469.259918,577.198975 481.833221,577.600342 490.194519,571.784119 
	C499.415955,565.369568 499.325531,553.457336 490.029022,547.096191 
	C486.132416,544.429932 481.756927,542.826233 477.369812,541.236572 
	C473.919769,539.986450 470.468658,538.734375 467.488464,536.512512 
	C458.659546,529.930237 459.947235,517.299072 470.026794,513.028809 
	C476.504150,510.284637 483.315735,509.963348 490.105743,511.870117 
	C494.347717,513.061340 494.825012,514.739136 492.090302,519.126282 
	C487.966553,515.518005 483.262543,513.375488 477.617340,514.071594 
	C473.352478,514.597473 469.674500,516.088745 468.418488,520.498535 
	C467.157196,524.926880 469.113434,528.275940 473.414673,530.645996 
z"/>
<path fill="#000000" opacity="1.000000" stroke="none" 
	d="
M794.151306,489.848694 
	C784.729614,478.389557 775.548035,467.196960 766.359436,456.010132 
	C766.262085,455.891602 766.073059,455.848419 764.668823,455.096191 
	C764.668823,469.023865 764.668823,482.333191 764.668823,495.704773 
	C760.726196,495.379944 760.898743,493.273407 760.887939,491.534149 
	C760.803467,477.886902 760.783997,464.239197 760.780701,450.591614 
	C760.780334,449.136780 760.517944,447.320099 762.325134,446.744659 
	C764.105591,446.177765 764.970581,447.810822 765.887512,448.933929 
	C775.463257,460.663330 785.002197,472.422821 794.583740,484.147491 
	C795.474487,485.237488 796.001648,486.827820 797.953064,486.993591 
	C798.700623,473.732544 796.951294,460.479370 798.752686,447.317108 
	C798.816528,446.850616 799.624329,446.485931 800.092529,446.067413 
	C802.504211,448.976776 803.359497,488.979767 801.235657,495.764099 
	C797.345947,495.844818 796.751160,491.845551 794.151306,489.848694 
z"/>
<path fill="#000000" opacity="1.000000" stroke="none" 
	d="
M749.738892,492.741089 
	C751.921082,492.872986 753.951904,492.323822 754.658386,494.466858 
	C754.478210,495.751495 753.746521,496.232391 752.899536,496.238312 
	C744.909180,496.294098 736.918335,496.308289 728.927734,496.293732 
	C726.579163,496.289459 725.780212,494.821625 725.781860,492.688751 
	C725.793274,478.202271 725.804443,463.715759 725.797974,449.229279 
	C725.796875,446.720520 727.021057,445.642609 729.493286,445.650360 
	C736.320190,445.671722 743.147339,445.597900 749.974121,445.627380 
	C751.240906,445.632843 753.050659,445.469513 753.035889,447.322968 
	C753.018799,449.482056 751.047913,449.178558 749.624756,449.194031 
	C744.296875,449.252075 738.967407,449.282104 733.639954,449.213409 
	C730.743713,449.176117 729.291382,450.179688 729.579895,453.338043 
	C729.867004,456.481049 730.032288,459.663452 729.882141,462.811005 
	C729.691956,466.796753 731.493652,468.132050 735.263367,467.953217 
	C739.250732,467.764099 743.255310,467.846283 747.249634,467.935150 
	C748.975281,467.973511 751.127136,467.625122 751.329407,470.695801 
	C747.785217,473.169128 743.684204,471.861969 739.874268,471.905609 
	C728.446899,472.036469 729.253967,470.924896 729.589233,482.377655 
	C729.892944,492.753479 729.891724,492.754059 740.282043,492.753357 
	C743.279297,492.753143 746.276611,492.748444 749.738892,492.741089 
z"/>
<path fill="#000000" opacity="1.000000" stroke="none" 
	d="
M497.679138,463.001892 
	C497.680176,458.510010 497.588287,454.514282 497.728638,450.526764 
	C497.785614,448.907379 496.940674,446.218597 499.728149,446.323181 
	C502.019501,446.409210 501.333496,448.864655 501.345520,450.378265 
	C501.418213,459.526855 501.293518,468.677612 501.418060,477.825104 
	C501.582153,489.877045 510.993011,496.593933 522.447449,492.971130 
	C529.257263,490.817291 532.575378,486.535065 532.650330,479.342438 
	C532.749146,469.861633 532.618713,460.378510 532.701416,450.897369 
	C532.717102,449.098969 531.981079,446.169434 534.910339,446.300018 
	C537.629578,446.421265 536.999268,449.280975 536.971924,451.131744 
	C536.827209,460.940033 536.717468,470.753479 536.281860,480.551208 
	C535.966003,487.653442 532.323425,492.769287 525.731567,495.585480 
	C510.835022,501.949463 497.678101,493.433197 497.684875,477.474915 
	C497.686829,472.817078 497.681580,468.159210 497.679138,463.001892 
z"/>
<path fill="#000000" opacity="1.000000" stroke="none" 
	d="
M549.629639,452.647675 
	C547.040405,457.966125 549.814636,460.933472 553.750854,463.082733 
	C557.680908,465.228638 561.944214,466.762268 565.884216,468.892181 
	C572.350342,472.387665 574.814880,477.932495 573.272522,484.699921 
	C571.721802,491.503510 565.990723,496.363281 558.691772,497.063721 
	C551.804077,497.724701 545.088013,494.059631 542.772705,488.242249 
	C541.797058,485.790802 540.857971,483.198486 544.081116,481.043030 
	C545.799866,482.712891 545.634705,485.042908 546.509705,486.880463 
	C549.028687,492.170074 554.745117,494.834167 560.698608,493.362762 
	C566.487488,491.932007 569.940063,487.444183 569.728638,481.843506 
	C569.578308,477.861847 567.332825,475.385132 564.072937,473.675995 
	C559.657654,471.360962 555.046448,469.399445 550.732788,466.915497 
	C545.334351,463.806854 543.541077,459.759949 544.645447,454.495422 
	C545.714966,449.397247 549.861816,446.050537 556.235413,445.141815 
	C561.844604,444.342102 566.742920,446.442810 569.097961,450.721924 
	C569.297791,451.084961 569.124451,451.653351 569.124451,453.016144 
	C562.571045,449.556122 556.119934,444.357239 549.629639,452.647675 
z"/>
<path fill="#000000" opacity="1.000000" stroke="none" 
	d="
M713.168213,461.062927 
	C708.007019,471.741608 703.051147,482.104401 697.954834,492.397675 
	C696.037781,496.269623 694.416016,496.422455 692.629761,492.810852 
	C685.398560,478.189880 678.340576,463.483093 671.248901,448.793396 
	C670.982544,448.241608 671.028748,447.538940 670.903015,446.739655 
	C674.612305,445.000580 675.286743,448.076324 676.268677,450.025879 
	C681.809875,461.027496 687.207092,472.101532 692.696960,483.129150 
	C693.493469,484.729126 693.935425,486.597168 696.126465,488.021301 
	C702.008667,475.644775 707.839966,463.378510 713.664551,451.109009 
	C713.877991,450.659332 713.971558,450.147736 714.214844,449.718079 
	C715.058350,448.228088 715.426636,445.478638 717.743896,446.478455 
	C720.251709,447.560516 718.249878,449.639709 717.620850,451.157532 
	C716.283264,454.384918 714.763000,457.536621 713.168213,461.062927 
z"/>
<path fill="#000000" opacity="1.000000" stroke="none" 
	d="
M818.997681,445.103333 
	C825.887329,445.657043 832.471313,444.754150 839.021667,446.667480 
	C837.615601,449.786804 835.379639,449.115204 833.527161,449.170471 
	C826.295532,449.386230 826.288818,449.344879 826.285095,456.711517 
	C826.279297,468.195282 826.313721,479.679199 826.245483,491.162567 
	C826.235535,492.838989 826.944824,495.527771 824.419250,495.613678 
	C821.570007,495.710602 822.044495,492.857178 822.035950,491.013336 
	C821.980347,479.030945 821.739685,467.036194 822.208130,455.070831 
	C822.408081,449.962494 820.725098,448.660736 816.052368,449.076263 
	C813.789429,449.277527 811.012329,450.186890 809.033386,447.248444 
	C811.617126,443.761627 815.382874,445.649719 818.997681,445.103333 
z"/>
<path fill="#000000" opacity="1.000000" stroke="none" 
	d="
M602.893677,445.580261 
	C604.936462,445.703278 606.642639,445.417847 608.134583,446.978912 
	C606.588013,450.071838 603.805115,449.216797 601.629028,449.092194 
	C597.566589,448.859619 596.060974,450.289551 596.143921,454.487488 
	C596.376892,466.280762 596.303833,478.082184 596.174316,489.878448 
	C596.152405,491.873352 597.548828,495.477783 594.047913,495.356476 
	C590.926819,495.248352 591.947693,491.723572 591.926270,489.602753 
	C591.810364,478.138397 591.645203,466.667084 591.941406,455.209656 
	C592.066895,450.355988 590.447632,448.638245 585.668213,449.021912 
	C583.656189,449.183441 579.979553,450.381287 579.887146,447.238678 
	C579.792114,444.008057 583.473633,445.229065 585.501404,445.201263 
	C591.141968,445.123810 596.787781,445.425323 602.893677,445.580261 
z"/>
<path fill="#000000" opacity="1.000000" stroke="none" 
	d="
M485.963837,468.997406 
	C485.966309,462.336853 485.927704,456.175293 485.998199,450.014923 
	C486.016449,448.424164 485.823395,446.229156 488.138153,446.196198 
	C490.555481,446.161743 490.223450,448.390900 490.228760,449.962402 
	C490.263611,460.286346 490.455566,470.617371 490.149231,480.932770 
	C489.853760,490.883820 483.751190,497.360596 473.974579,498.892334 
	C472.973602,499.049164 471.999207,499.156799 471.241211,498.170898 
	C471.166962,495.735168 473.226257,495.937286 474.669525,495.439178 
	C483.181427,492.501190 485.725952,489.041870 485.906403,479.987305 
	C485.976074,476.491486 485.947296,472.993713 485.963837,468.997406 
z"/>
</svg>